<svg width="33" height="34" viewBox="0 0 33 34" fill="none" xmlns="http://www.w3.org/2000/svg">
<path d="M32.0001 17.48C32.2401 8.31997 24.8801 0.879967 15.7601 0.999967C7.00006 1.11997 -0.079939 8.35997 6.0998e-05 17.12C0.040061 23.4 3.72006 28.8 9.00006 31.4C9.32006 31.56 9.68006 31.32 9.64006 30.96C9.60006 29.92 9.64006 28.84 9.84006 27.96C10.0401 27.08 10.8401 23.72 11.3601 21.52C11.6001 20.44 11.6401 19.32 11.4401 18.24C11.3601 17.88 11.3201 17.48 11.3201 17C11.3201 14.64 12.6801 12.88 14.4001 12.88C15.8401 12.88 16.5601 13.96 16.5601 15.28C16.5601 16.72 15.6401 18.92 15.1601 20.96C14.7601 22.64 16.0001 24.04 17.6801 24.04C20.7201 24.04 23.0401 20.84 23.0401 16.24C23.0401 12.16 20.1201 9.31997 15.9201 9.31997C11.0801 9.31997 8.24006 12.96 8.24006 16.72C8.24006 18.2 8.80006 19.76 9.52006 20.6C9.64006 20.76 9.68006 20.92 9.64006 21.08C9.52006 21.6 9.24006 22.76 9.16006 23C9.08006 23.32 8.92006 23.36 8.60006 23.24C6.48006 22.2 5.12006 19.08 5.12006 16.6C5.12006 11.24 9.00006 6.31997 16.3601 6.31997C22.2401 6.31997 26.8401 10.52 26.8401 16.16C26.8401 22.04 23.1601 26.72 18.0001 26.72C16.6401 26.72 15.3601 26.16 14.6001 25.4C14.3601 25.16 13.9601 25.28 13.8801 25.6C13.6001 26.6 13.2001 28.28 13.0401 28.8C12.8001 29.76 12.2801 30.88 11.7201 31.88C11.5601 32.12 11.7201 32.48 12.0001 32.52C13.3201 32.84 14.6801 33.04 16.0801 33C24.5601 32.92 31.7601 25.88 32.0001 17.48Z" fill="white"/>
</svg>
